<svg width="163" height="40" viewBox="0 0 163 40" fill="none" xmlns="http://www.w3.org/2000/svg">
<rect width="40" height="40" rx="6" fill="url(#paint0_linear_7_1760)"/>
<path d="M11 29V27H13V11H23V12H27V27H29V29H25V14H23V29H11ZM19 21C19.2833 21 19.521 20.904 19.713 20.712C19.905 20.52 20.0007 20.2827 20 20C20 19.7167 19.904 19.479 19.712 19.287C19.52 19.095 19.2827 18.9993 19 19C18.7167 19 18.479 19.096 18.287 19.288C18.095 19.48 17.9993 19.7173 18 20C18 20.2833 18.096 20.521 18.288 20.713C18.48 20.905 18.7173 21.0007 19 21Z" fill="white"/>
<path d="M70.3438 26.1221C70.3438 26.374 70.1943 26.5 69.8955 26.5H67.7861C67.5635 26.5 67.3174 26.4209 67.0479 26.2627C66.7842 26.0986 66.582 25.9023 66.4414 25.6738L64.9473 23.3359C64.332 22.375 63.5879 21.8945 62.7148 21.8945H60.5703V25.6738C60.5703 25.9023 60.4883 26.0986 60.3242 26.2627C60.166 26.4209 59.9727 26.5 59.7441 26.5H58.0918C57.8633 26.5 57.667 26.4209 57.5029 26.2627C57.3389 26.0986 57.2568 25.9023 57.2568 25.6738V14.7314C57.2568 14.5029 57.3359 14.3066 57.4941 14.1426C57.6523 13.9785 57.8457 13.8965 58.0742 13.8965H65.3252C66.667 13.8965 67.7656 14.2568 68.6211 14.9775C69.4824 15.6982 69.9131 16.6709 69.9131 17.8955C69.9131 19.6006 68.8086 20.6699 66.5996 21.1035C66.9512 21.2324 67.2764 21.4551 67.5752 21.7715C67.874 22.082 68.2168 22.5361 68.6035 23.1338L70.2031 25.6738C70.2969 25.8379 70.3438 25.9873 70.3438 26.1221ZM60.5703 19.4072H64.3145C64.918 19.4072 65.4482 19.2871 65.9053 19.0469C66.3682 18.8066 66.5996 18.4229 66.5996 17.8955C66.5996 17.3682 66.3682 16.9844 65.9053 16.7441C65.4482 16.5039 64.918 16.3838 64.3145 16.3838H60.5703V19.4072ZM83.4395 25.1992C82.2441 26.248 80.4863 26.7725 78.166 26.7725C75.8516 26.7725 74.0938 26.248 72.8926 25.1992C71.6914 24.1445 71.0908 22.4775 71.0908 20.1982C71.0908 17.9189 71.6914 16.2549 72.8926 15.2061C74.0938 14.1572 75.8516 13.6328 78.166 13.6328C80.4863 13.6328 82.2441 14.1572 83.4395 15.2061C84.6406 16.2549 85.2412 17.9189 85.2412 20.1982C85.2412 22.4775 84.6406 24.1445 83.4395 25.1992ZM81.04 17.0605C80.4482 16.3574 79.4902 16.0059 78.166 16.0059C76.8477 16.0059 75.8896 16.3574 75.292 17.0605C74.7002 17.7637 74.4043 18.8125 74.4043 20.207C74.4043 21.5957 74.7002 22.6416 75.292 23.3447C75.8896 24.042 76.8477 24.3906 78.166 24.3906C79.4902 24.3906 80.4482 24.042 81.04 23.3447C81.6318 22.6416 81.9277 21.5957 81.9277 20.207C81.9277 18.8125 81.6318 17.7637 81.04 17.0605ZM98.6797 25.1992C97.4844 26.248 95.7266 26.7725 93.4062 26.7725C91.0918 26.7725 89.334 26.248 88.1328 25.1992C86.9316 24.1445 86.3311 22.4775 86.3311 20.1982C86.3311 17.9189 86.9316 16.2549 88.1328 15.2061C89.334 14.1572 91.0918 13.6328 93.4062 13.6328C95.7266 13.6328 97.4844 14.1572 98.6797 15.2061C99.8809 16.2549 100.481 17.9189 100.481 20.1982C100.481 22.4775 99.8809 24.1445 98.6797 25.1992ZM96.2803 17.0605C95.6885 16.3574 94.7305 16.0059 93.4062 16.0059C92.0879 16.0059 91.1299 16.3574 90.5322 17.0605C89.9404 17.7637 89.6445 18.8125 89.6445 20.207C89.6445 21.5957 89.9404 22.6416 90.5322 23.3447C91.1299 24.042 92.0879 24.3906 93.4062 24.3906C94.7305 24.3906 95.6885 24.042 96.2803 23.3447C96.8721 22.6416 97.168 21.5957 97.168 20.207C97.168 18.8125 96.8721 17.7637 96.2803 17.0605ZM102.292 25.6562V14.749C102.292 14.5088 102.371 14.3066 102.529 14.1426C102.688 13.9785 102.881 13.8965 103.109 13.8965H106.687C106.915 13.8965 107.132 13.9785 107.337 14.1426C107.542 14.3066 107.68 14.5029 107.75 14.7314L110.343 22.2373L112.936 14.7314C113.006 14.5029 113.144 14.3066 113.349 14.1426C113.554 13.9785 113.771 13.8965 113.999 13.8965H117.576C117.805 13.8965 117.995 13.9785 118.147 14.1426C118.306 14.3066 118.385 14.5088 118.385 14.749V25.6562C118.385 25.8965 118.303 26.0986 118.139 26.2627C117.98 26.4209 117.787 26.5 117.559 26.5H115.977C115.748 26.5 115.552 26.4209 115.388 26.2627C115.229 26.0986 115.15 25.8965 115.15 25.6562V17.0693L112.048 25.709C111.966 25.9258 111.822 26.1133 111.617 26.2715C111.412 26.4238 111.195 26.5 110.967 26.5H109.71C109.481 26.5 109.265 26.4238 109.06 26.2715C108.86 26.1133 108.717 25.9258 108.629 25.709L105.535 17.0693V25.6562C105.535 25.8965 105.453 26.0986 105.289 26.2627C105.131 26.4209 104.938 26.5 104.709 26.5H103.127C102.898 26.5 102.702 26.4209 102.538 26.2627C102.374 26.0986 102.292 25.8965 102.292 25.6562ZM122.639 23.6523C123.43 23.6523 123.825 24.0508 123.825 24.8477V25.4014C123.825 25.7705 123.723 26.0605 123.518 26.2715C123.318 26.4824 123.025 26.5879 122.639 26.5879H121.558C121.171 26.5879 120.875 26.4824 120.67 26.2715C120.471 26.0605 120.371 25.7705 120.371 25.4014V24.8477C120.371 24.4609 120.474 24.165 120.679 23.96C120.884 23.7549 121.177 23.6523 121.558 23.6523H122.639ZM125.812 25.6562V14.749C125.812 14.5088 125.891 14.3066 126.049 14.1426C126.207 13.9785 126.4 13.8965 126.629 13.8965H130.206C130.435 13.8965 130.651 13.9785 130.856 14.1426C131.062 14.3066 131.199 14.5029 131.27 14.7314L133.862 22.2373L136.455 14.7314C136.525 14.5029 136.663 14.3066 136.868 14.1426C137.073 13.9785 137.29 13.8965 137.519 13.8965H141.096C141.324 13.8965 141.515 13.9785 141.667 14.1426C141.825 14.3066 141.904 14.5088 141.904 14.749V25.6562C141.904 25.8965 141.822 26.0986 141.658 26.2627C141.5 26.4209 141.307 26.5 141.078 26.5H139.496C139.268 26.5 139.071 26.4209 138.907 26.2627C138.749 26.0986 138.67 25.8965 138.67 25.6562V17.0693L135.567 25.709C135.485 25.9258 135.342 26.1133 135.137 26.2715C134.932 26.4238 134.715 26.5 134.486 26.5H133.229C133.001 26.5 132.784 26.4238 132.579 26.2715C132.38 26.1133 132.236 25.9258 132.148 25.709L129.055 17.0693V25.6562C129.055 25.8965 128.973 26.0986 128.809 26.2627C128.65 26.4209 128.457 26.5 128.229 26.5H126.646C126.418 26.5 126.222 26.4209 126.058 26.2627C125.894 26.0986 125.812 25.8965 125.812 25.6562ZM144.427 25.6562V14.7139C144.427 14.4854 144.509 14.292 144.673 14.1338C144.837 13.9756 145.033 13.8965 145.262 13.8965H155.396C155.624 13.8965 155.817 13.9785 155.976 14.1426C156.14 14.3066 156.222 14.5029 156.222 14.7314V15.5576C156.222 15.7861 156.14 15.9824 155.976 16.1465C155.817 16.3047 155.624 16.3838 155.396 16.3838H147.74V18.9414H154.332C154.561 18.9414 154.754 19.0234 154.912 19.1875C155.076 19.3457 155.158 19.5391 155.158 19.7676V20.5938C155.158 20.8223 155.076 21.0186 154.912 21.1826C154.754 21.3408 154.561 21.4199 154.332 21.4199H147.74V24.0127H155.378C155.601 24.0127 155.791 24.0918 155.949 24.25C156.107 24.4082 156.187 24.6016 156.187 24.8301V25.6738C156.187 25.9023 156.104 26.0986 155.94 26.2627C155.776 26.4209 155.58 26.5 155.352 26.5H145.262C145.033 26.5 144.837 26.4209 144.673 26.2627C144.509 26.0986 144.427 25.8965 144.427 25.6562Z" fill="white"/>
<defs>
<linearGradient id="paint0_linear_7_1760" x1="0" y1="0" x2="40" y2="40" gradientUnits="userSpaceOnUse">
<stop stop-color="#8B80FF"/>
<stop offset="1" stop-color="#5C53BC"/>
</linearGradient>
</defs>
</svg>
