<svg width="40" height="40" viewBox="0 0 40 40" fill="none" xmlns="http://www.w3.org/2000/svg">
<rect width="40" height="40" rx="6" fill="url(#paint0_linear_7_1761)"/>
<path d="M11 29V27H13V11H23V12H27V27H29V29H25V14H23V29H11ZM19 21C19.2833 21 19.521 20.904 19.713 20.712C19.905 20.52 20.0007 20.2827 20 20C20 19.7167 19.904 19.479 19.712 19.287C19.52 19.095 19.2827 18.9993 19 19C18.7167 19 18.479 19.096 18.287 19.288C18.095 19.48 17.9993 19.7173 18 20C18 20.2833 18.096 20.521 18.288 20.713C18.48 20.905 18.7173 21.0007 19 21Z" fill="white"/>
<defs>
<linearGradient id="paint0_linear_7_1761" x1="0" y1="0" x2="40" y2="40" gradientUnits="userSpaceOnUse">
<stop stop-color="#8B80FF"/>
<stop offset="1" stop-color="#5C53BC"/>
</linearGradient>
</defs>
</svg>
